<svg xmlns="http://www.w3.org/2000/svg" width="256" height="256"><path fill="#1976D2" fill-opacity=".016" fill-rule="evenodd" d="M0 128.004v128.004l128.25-.254 128.25-.254.254-127.75L257.008 0H0v128.004m.485.496c0 70.4.119 99.053.265 63.672.146-35.38.146-92.98 0-128C.604 29.153.485 58.1.485 128.5"/><path fill="#1976D2" fill-opacity=".167" fill-rule="evenodd" d="M39.348 1.42c-9.109 2.209-16.43 6.505-23.865 14.003-3.86 3.893-8.232 9.361-9.717 12.152C-.101 38.602 0 36.839 0 127.982c0 78.32.116 83.981 1.855 90.252 4.776 17.224 19.521 31.588 37.276 36.313 7.968 2.121 169.77 2.121 177.738 0 9.444-2.513 16.278-6.54 23.708-13.97 7.502-7.503 11.533-14.391 13.652-23.327.684-2.887 1.588-5.25 2.008-5.25.419 0 .727-38.362.684-85.25-.043-46.888-.336-84.598-.649-83.802-.317.805-1.182-.971-1.948-4-4.598-18.185-21.036-34.086-39.123-37.846C207.24-.553 46.283-.262 39.348 1.42m5.152.278C33.566 3.15 20.21 10.686 12.789 19.591c-4.947 5.936-9.604 15.78-10.476 22.145-.49 3.575-.822 4.217-1.407 2.721C.485 43.381.188 80.975.245 128c.057 47.025.277 83.588.487 81.25l.383-4.25H255l-.017-78.25c-.019-85.121-.085-86.257-5.653-97.733-3.507-7.229-15.118-18.84-22.347-22.347-11.546-5.602-12.362-5.647-99.483-5.503-44 .073-81.35.312-83 .531m36.108 6.467C72.434 9.352 56 15.757 56 17.755c0 .397 6.857 7.589 15.238 15.983S85.919 49 85.238 49C84.533 49 84 50.273 84 51.955v2.955l-6.312-2.376C69.8 49.565 57.579 47 51.324 47c-4.388 0-5.168-.402-9.962-5.136l-5.2-5.136-3.52 6.886c-2.979 5.827-4.183 7.186-7.83 8.837-6.204 2.809-13.147 10.15-15.145 16.012-2.097 6.156-2.135 14.806-.092 20.803C12.56 98.027 22.016 106.199 36 112.103c3.025 1.277 8.282 4.671 11.682 7.541 3.401 2.87 8.01 6.262 10.243 7.537 6.672 3.811 4.68 7.853-4.884 9.904-9.661 2.072-23.859-1.573-37.288-9.573L10 124.085v24.886l6.106 3.083c9.161 4.624 19.56 6.946 31.107 6.946 13.667 0 22.364-2.151 30.349-7.506L84 147.178V157h53.44l21.03 20.928c13.06 12.997 22.052 21.181 23.727 21.595 5.353 1.324 9.085-1.144 22.757-15.051l13.239-13.467-.419-4.752c-.231-2.614-.748-5.476-1.149-6.36-.594-1.309.121-1.723 3.853-2.235 9.912-1.359 21.077-8.985 24.877-16.993 4.172-8.793 3.782-22.312-.874-30.278-4.807-8.223-11.515-12.435-33.059-20.756C198.758 84.739 193 80.668 193 76.604c0-10.599 20.987-11.431 42.482-1.685 3.737 1.695 7.182 3.081 7.656 3.081.474 0 .862-4.966.862-11.036V55.929l-4.75-2.036c-10.693-4.584-19.275-6.299-31.75-6.347-13.361-.051-19.346 1.388-27.747 6.673-4.944 3.109-10.1 8.842-11.599 12.894-.842 2.277-.945 2.217-2.954-1.722-2.187-4.285-7.768-9.802-10.935-10.807-1.026-.326-2.455-2.278-3.174-4.338-5.066-14.512-18.445-29.498-32.168-36.031-4.633-2.206-10.673-4.516-13.423-5.135-6.056-1.362-18.629-1.824-24.892-.915m26.461 31.307 9.568 9.652 4.932-.312 4.931-.312-5.277-5.625c-5.476-5.838-14.172-11.151-20.223-12.358-3.373-.672-3.154-.349 6.069 8.955M112 79.965V91h16.944l1.655-5.692c.91-3.13 1.71-7.968 1.778-10.75l.123-5.058-10.25-.285L112 68.93v11.035m-38.267-5.841c.679.684 1.486.991 1.793.683.308-.308-.247-.867-1.233-1.243-1.425-.542-1.54-.428-.56.56M49 81.351c0 .743.475 2.713 1.056 4.379.848 2.435 2.156 3.434 6.668 5.096l5.613 2.068-6.39-6.447C52.433 82.901 49.432 80 49.279 80c-.154 0-.279.608-.279 1.351m115.538 7.209c-1.048 1.945-3.669 4.834-5.825 6.419l-3.919 2.883 4.981 2.524c6.515 3.301 11.019 7.91 13.781 14.101 1.515 3.396 5.092 7.791 11.09 13.626 8.574 8.341 9.039 8.636 14.687 9.332 8.826 1.089 15.527-.151 18.865-3.489 5.905-5.905 2.23-11.793-10.198-16.343-4.125-1.509-12.514-5.182-18.641-8.161-12.704-6.176-19.404-12.384-21.64-20.051l-1.276-4.379-1.905 3.538M81.266 99.446l-2.234 2.235 2.484 2.334L84 106.349v-4.675c0-2.571-.112-4.627-.25-4.569-.138.059-1.255 1.112-2.484 2.341M124 111.638c0 1.038 19.19 20.362 20.221 20.362 1.14 0 2.583-6.574 2.052-9.352-.707-3.697-8.529-10.645-12.001-10.659-1.524-.006-4.459-.29-6.522-.631-2.062-.341-3.75-.215-3.75.28m-12 22.688c0 2.336.401 2.674 3.167 2.674 1.741 0 2.979-.113 2.75-.25-.229-.137-1.654-1.341-3.167-2.674l-2.75-2.425v2.675m52.706 15.446c-1.558 1.722-1.055 2.411 9.305 12.739l10.952 10.918 3.53-3.422 3.53-3.421-5.262-5.376c-4.278-4.371-10.071-8.162-19.834-12.976-.315-.156-1.314.537-2.221 1.538"/><path fill="#1976D2" fill-opacity=".483" fill-rule="evenodd" d="M14.924 15.75 12.5 18.5l2.75-2.424c1.512-1.334 2.75-2.571 2.75-2.75 0-.785-.81-.146-3.076 2.424M.261 127c-.246 87.503-.194 88.486 5.307 99.729 6.118 12.505 17.572 22.368 30.812 26.532l7.12 2.239H128c93.699 0 89.569.27 101.71-6.637 13.307-7.57 25.29-25.761 25.29-38.39 0-2.14.404-3.341 1-2.973.664.41.976-26.722.93-80.691-.04-46.295-.441-80.448-.93-79.309-.473 1.1-.891 37.212-.93 80.25L255 206H1.012L.75 126.25.488 46.5.261 127m.216 1c0 44.825.123 63.163.273 40.75.15-22.412.15-59.087 0-81.5C.6 64.838.477 83.175.477 128m35.774-79.484C13.304 53.501 2.216 73.441 11.625 92.807c4.255 8.759 14.703 15.542 37.369 24.259C58.406 120.687 63 124.433 63 128.489c0 4.058-1.566 6.12-5.991 7.891-9.423 3.77-24.948.832-39.347-7.448-3.761-2.163-7.023-3.932-7.25-3.932-.227 0-.412 5.329-.412 11.842v11.843l7.75 3.551c9.341 4.279 15.017 5.704 25.752 6.461 14.611 1.031 28.887-2.767 36.895-9.815L85 144.83V157h29.34c33.032 0 41.133-1.15 49.301-7.001 3.367-2.413 4.348-2.717 5.249-1.631 2.071 2.495 14.856 7.68 22.586 9.159 10.401 1.99 19.485 1.83 28.752-.505 8.676-2.187 12.586-3.971 17.969-8.201 11.532-9.062 12.695-31.051 2.257-42.661-5.156-5.734-10.057-8.487-26.862-15.085-18.535-7.278-23.412-11.655-20.106-18.048 4.233-8.185 26.532-6.711 45.593 3.013l3.987 2.034-.283-11.278-.283-11.278-10-3.43c-8.52-2.921-11.715-3.495-21.589-3.876-13.099-.505-19.481.536-27.58 4.502-5.884 2.881-13.951 10.925-14.951 14.907-.855 3.409-1.578 2.941-4.249-2.751-1.786-3.803-3.646-5.864-7.548-8.36-9.745-6.234-13.089-6.788-43.833-7.266L85 48.813v3.094c0 1.701-.284 3.093-.631 3.093-.348 0-4.513-1.333-9.257-2.962-7.921-2.719-22.305-5.124-29.612-4.95-1.65.039-5.812.682-9.249 1.428m4.77 20.535C37.162 70.692 35 73.087 35 75.721c0 5.789 4.08 8.672 22.106 15.618 14.839 5.719 18.814 7.777 23.426 12.126 2.061 1.944 3.899 3.535 4.083 3.535.185 0 .235-6.485.11-14.41L84.5 78.179 80 75.962c-9.644-4.751-18.335-7.139-27.5-7.556-5.077-.231-10.081.05-11.479.645M112 80v12l7.75-.024C134.461 91.931 140 88.9 140 80.895 140 71.565 134.603 68 120.48 68H112v12m52.5 7.697c-1.1 2.049-3.928 5.191-6.283 6.981l-4.284 3.254 4.891 2.479c2.69 1.363 6.282 3.649 7.982 5.08 3.952 3.325 7.86 11.524 8.72 18.292.653 5.143.806 5.352 5.8 7.882 9.002 4.562 15.541 6.335 23.363 6.335 11.797 0 16.311-2.845 16.311-10.279 0-5.005-3.301-7.371-17.223-12.344-19.888-7.103-32.603-16.595-35.799-26.723L166.5 83.97l-2 3.727M112 123.995v13.201l13.25-.351c10.856-.288 13.822-.697 16.415-2.263 5.54-3.348 6.992-10.352 3.375-16.283-3.299-5.413-7.014-6.684-20.79-7.119l-12.25-.386v13.201"/><path fill="#1976D2" fill-opacity=".112" fill-rule="evenodd" d="M34.746 49.086c-2.065.486-5.986 2.015-8.713 3.397C14.138 58.511 9.02 66.488 9.02 79c0 14.227 6.355 22.34 24.162 30.843 5.675 2.71 12.118 5.49 14.318 6.178 6.472 2.025 13.345 5.821 14.522 8.02.601 1.124.955 3.698.786 5.719-.239 2.847-1.035 4.164-3.531 5.84-8.06 5.412-20.751 3.934-37.277-4.341L10.5 125.5l.179 11.5.18 11.5 5.453 2.761c8.652 4.38 19.574 6.741 31.098 6.723 9.513-.014 20.827-1.795 22.386-3.523.387-.429-.052-.509-.975-.179-2.373.849-9.639 1.856-7.821 1.084.825-.35 5.604-4.789 10.62-9.865l9.121-9.227 10.379-.516c5.709-.284 12.518-1.114 15.13-1.844l4.75-1.329V111h11.06l-2.156-2.916c-2.337-3.16-5.509-4.532-6.558-2.836-.385.624-.179.767.499.347.635-.392 1.155-.498 1.155-.236 0 .682-6.561 4.648-7.618 4.606-.485-.02.243-.679 1.618-1.465s2.089-1.445 1.586-1.465c-.503-.019 2.197-3.298 6-7.285l6.914-7.25-6.281-.299-6.282-.298.282-11.702.281-11.701 10-.265c8.601-.228 10.463.02 13.31 1.772 9.301 5.723 7.02 19.824-3.492 21.589-2.532.425-4.621 1.635-6.204 3.594l-2.385 2.954 6.885 6.465c3.787 3.555 8.686 7.461 10.886 8.678 2.347 1.298 4.709 3.66 5.715 5.713.943 1.925 4.426 6.182 7.74 9.459l6.026 5.959 6.644-6.709c3.654-3.69 6.782-6.709 6.952-6.709.169 0 .5 1.688.734 3.75.235 2.063.292 1.5.128-1.25-.286-4.792-.682-5.405-9.509-14.75-5.066-5.362-9.823-9.75-10.57-9.75-.748 0-1.36-.62-1.36-1.378 0-.757-.619-1.891-1.376-2.519-1.168-.97-1.165-1.756.02-5.196 2.096-6.082 3.622-18.697 3.014-24.907-.296-3.025-.295-4.914.003-4.197.407.98.89.857 1.95-.5 1.324-1.695 1.594-1.593 4.508 1.697 1.705 1.925 2.642 2.6 2.083 1.5-1.285-2.524-4.682-5.567-9.278-8.312-6.808-4.067-15.392-5.223-42.977-5.789L85 48.866v3.567c0 1.962-.147 3.567-.328 3.567-.18 0-2.995-1.084-6.257-2.409-12.182-4.95-32.769-7.074-43.669-4.505M46 67.692c-5.944.997-9.099 2.598-10.514 5.335-3.326 6.431 1.684 10.877 20.762 18.427 16.774 6.638 18.98 7.793 24.366 12.758L85 108.255V78.034l-5.132-2.601C73.029 71.967 63.946 69.132 56 67.981c-3.575-.518-6.725-.889-7-.825-.275.064-1.625.305-3 .536m119.079 1.891c.048 1.165.285 1.402.604.605.289-.722.253-1.585-.079-1.917-.332-.332-.568.258-.525 1.312m-21.994 64.815c-1.612 1.942-9.676 3.602-17.5 3.602h-6.316l9.178 9c8.916 8.744 9.304 8.996 13.615 8.843l4.438-.157-5-.686c-2.75-.377-4.264-.756-3.364-.843.9-.086 4.374-2.795 7.721-6.019 3.347-3.225 6.402-5.587 6.79-5.25 1.827 1.586-3.752-5.668-5.899-7.671-2.114-1.972-2.614-2.084-3.663-.819M85.31 150.5c.005 3.3.192 4.529.415 2.732.222-1.797.218-4.497-.01-6-.229-1.503-.411-.032-.405 3.268m-7.438-.75c-1.243 1.586-1.208 1.621.378.378.963-.755 1.75-1.543 1.75-1.75 0-.823-.821-.294-2.128 1.372M73 152.5c-1.375.786-2.024 1.445-1.441 1.465.582.019 1.932-.626 3-1.433 2.469-1.868 1.68-1.884-1.559-.032m75.813 2.183c.721.289 1.584.253 1.916-.079.332-.332-.258-.568-1.312-.525-1.165.048-1.402.285-.604.604m-93 2c.721.289 1.584.253 1.916-.079.332-.332-.258-.568-1.312-.525-1.165.048-1.402.285-.604.604M1.012 208.75c.052 12.085 10.221 29.233 21.999 37.098 9.552 6.379 16.906 8.285 33.989 8.81 22.5.692 63.25-1.108 71-3.135 3.575-.936 8.525-2.05 11-2.478 2.475-.427 15.975-3.128 30-6.002 59.487-12.191 78.43-15.895 79.118-15.47 1.051.65 4.705-9.623 5.717-16.074l.862-5.499H1l.012 2.75"/></svg>